<svg width="40" height="40" viewBox="0 0 40 40" fill="none" xmlns="http://www.w3.org/2000/svg">
<g clip-path="url(#clip0)">
<path d="M10.8606 31.15C10.4146 31.0937 10.1317 31.0938 9.57476 31.0938C9.06466 31.0938 6.02813 31.2054 3.66744 31.9963C3.27179 32.1416 1.32794 33.0117 0 34.1442V35.7358C0 38.0892 1.90883 39.9973 4.26274 39.9973H18.1943C18.4017 36.1646 14.8564 33.9974 10.8606 31.15Z" fill="#535353"/>
<path d="M7.28557 25.6786C7.28557 24.7187 7.58687 24.155 7.86824 23.4758C7.25065 23.5333 6.66848 23.5903 6.10633 23.5903C3.55404 23.5903 1.42852 22.6164 0.00012207 21.338V27.5955V31.2504C3.56261 29.5413 7.23674 29.633 9.04121 29.5135C8.25279 28.4945 7.28557 27.423 7.28557 25.6786Z" fill="#535353"/>
<path d="M12.6312 19.9233C13.6869 18.7163 14.0999 17.1265 14.0999 16.3118C14.0999 12.2493 11.7458 5.93365 7.08199 5.93365C5.61985 5.93365 4.04741 6.6657 3.14555 7.79289C2.18953 8.97883 2.04346 10.4991 2.04346 11.9705C2.04346 15.7471 4.0263 21.3378 8.86196 21.3378C10.2679 21.3378 11.7082 20.979 12.6312 19.9233Z" fill="#535353"/>
<path d="M35.7379 0.00274658H4.26274C1.90883 0.00274658 0 1.91081 0 4.2643V7.8055C3.43888 4.43529 7.0463 4.28804 9.96465 4.28804H21.846L18.6892 7.14416C18.6892 7.14416 15.7088 7.14416 15.2456 7.14416C16.6258 7.14416 18.6845 10.1953 18.6845 14.0049C18.6845 18.1765 16.4845 19.8673 14.1218 21.7271C13.3931 22.4585 12.5514 23.2513 12.5514 24.4928C12.5514 25.733 13.3932 26.4102 14.0096 26.9189L16.0364 28.4946C18.507 30.5831 21.739 32.9954 21.739 36.8882C21.739 37.4426 21.4411 39.0639 21.2528 39.9975H35.7379C38.0921 39.9975 40.0001 38.0893 40.0001 35.7359V4.2643C40 1.91081 38.0919 0.00274658 35.7379 0.00274658ZM35.7147 12.8599H32.8572V15.7175C32.8572 16.5063 32.2176 17.1459 31.4287 17.1459C30.6398 17.1459 30.0002 16.5063 30.0002 15.7175V12.8599H27.1427C26.3538 12.8599 25.7142 12.2203 25.7142 11.4314C25.7142 10.6426 26.3538 10.003 27.1427 10.003H30.0002V7.14552C30.0002 6.35659 30.6398 5.71703 31.4287 5.71703C32.2176 5.71703 32.8572 6.35659 32.8572 7.14552V10.0031H35.7147C36.5036 10.0031 37.1432 10.6426 37.1432 11.4315C37.1432 12.2203 36.5036 12.8599 35.7147 12.8599Z" fill="#535353"/>
</g>
<defs>
<clipPath id="clip0">
<rect width="40" height="40" fill="white"/>
</clipPath>
</defs>
</svg>
